<?xml version="1.0" encoding="UTF-8" standalone="no"?>
<!DOCTYPE svg PUBLIC "-//W3C//DTD SVG 1.0//EN" "http://www.w3.org/TR/2001/PR-SVG-20010719/DTD/svg10.dtd">
<svg width="41cm" height="15cm" viewBox="97 58 817 296" xmlns="http://www.w3.org/2000/svg" xmlns:xlink="http://www.w3.org/1999/xlink">
  <g>
    <rect style="fill: #ffffff" x="589.325" y="59.9283" width="323.75" height="242.133"/>
    <rect style="fill: none; fill-opacity:0; stroke-width: 2; stroke: #000000" x="589.325" y="59.9283" width="323.75" height="242.133"/>
    <text font-size="13.5467" style="fill: #000000;text-anchor:middle;font-family:CMU Serif;font-style:normal;font-weight:normal" x="751.2" y="83.5783">
      <tspan x="751.2" y="83.5783"></tspan>
      <tspan x="751.2" y="100.512"></tspan>
      <tspan x="751.2" y="117.445"></tspan>
      <tspan x="751.2" y="134.378"></tspan>
      <tspan x="751.2" y="151.312"></tspan>
      <tspan x="751.2" y="168.245"></tspan>
      <tspan x="751.2" y="185.178"></tspan>
      <tspan x="751.2" y="202.112"></tspan>
      <tspan x="751.2" y="219.045"></tspan>
      <tspan x="751.2" y="235.978"></tspan>
      <tspan x="751.2" y="252.912"></tspan>
      <tspan x="751.2" y="269.845"></tspan>
      <tspan x="751.2" y="286.778">Traffic-gen host (Ubuntu Server 14.04.4 x64)</tspan>
    </text>
  </g>
  <g>
    <rect style="fill: #ffffff" x="686.2" y="125.249" width="194" height="38.9333"/>
    <rect style="fill: none; fill-opacity:0; stroke-width: 2; stroke: #000000" x="686.2" y="125.249" width="194" height="38.9333"/>
    <text font-size="13.5467" style="fill: #000000;text-anchor:middle;font-family:CMU Serif;font-style:normal;font-weight:normal" x="783.2" y="148.899">
      <tspan x="783.2" y="148.899">TCPreplay Process 1</tspan>
    </text>
  </g>
  <g>
    <rect style="fill: #ffffff" x="686.4" y="174.549" width="194" height="38.9333"/>
    <rect style="fill: none; fill-opacity:0; stroke-width: 2; stroke: #000000" x="686.4" y="174.549" width="194" height="38.9333"/>
    <text font-size="13.5467" style="fill: #000000;text-anchor:middle;font-family:CMU Serif;font-style:normal;font-weight:normal" x="783.4" y="198.199">
      <tspan x="783.4" y="198.199">TCPreplay Process 2</tspan>
    </text>
  </g>
  <g>
    <rect style="fill: #ffffff" x="686.4" y="223.549" width="194" height="38.9333"/>
    <rect style="fill: none; fill-opacity:0; stroke-width: 2; stroke: #000000" x="686.4" y="223.549" width="194" height="38.9333"/>
    <text font-size="13.5467" style="fill: #000000;text-anchor:middle;font-family:CMU Serif;font-style:normal;font-weight:normal" x="783.4" y="247.199">
      <tspan x="783.4" y="247.199">TCPreplay Process N</tspan>
    </text>
  </g>
  <g>
    <rect style="fill: #ffffff" x="558.2" y="154.249" width="83" height="38.9333"/>
    <rect style="fill: none; fill-opacity:0; stroke-width: 2; stroke: #000000" x="558.2" y="154.249" width="83" height="38.9333"/>
    <text font-size="13.5467" style="fill: #000000;text-anchor:middle;font-family:CMU Serif;font-style:normal;font-weight:normal" x="599.7" y="177.899">
      <tspan x="599.7" y="177.899">em2</tspan>
    </text>
  </g>
  <g>
    <rect style="fill: #ffffff" x="557.4" y="210.549" width="83" height="38.9333"/>
    <rect style="fill: none; fill-opacity:0; stroke-width: 2; stroke: #000000" x="557.4" y="210.549" width="83" height="38.9333"/>
    <text font-size="13.5467" style="fill: #000000;text-anchor:middle;font-family:CMU Serif;font-style:normal;font-weight:normal" x="598.9" y="234.199">
      <tspan x="598.9" y="234.199">em1</tspan>
    </text>
  </g>
  <g>
    <line style="fill: none; fill-opacity:0; stroke-width: 2; stroke: #000000" x1="686.2" y1="144.716" x2="650.15" y2="160.151"/>
    <polygon style="fill: #000000" points="643.256,163.103 650.48,154.57 650.15,160.151 654.416,163.763 "/>
    <polygon style="fill: none; fill-opacity:0; stroke-width: 2; stroke: #000000" points="643.256,163.103 650.48,154.57 650.15,160.151 654.416,163.763 "/>
  </g>
  <g>
    <line style="fill: none; fill-opacity:0; stroke-width: 2; stroke: #000000" x1="686.4" y1="194.016" x2="650.081" y2="177.705"/>
    <polygon style="fill: #000000" points="643.24,174.632 654.41,174.168 650.081,177.705 650.314,183.29 "/>
    <polygon style="fill: none; fill-opacity:0; stroke-width: 2; stroke: #000000" points="643.24,174.632 654.41,174.168 650.081,177.705 650.314,183.29 "/>
  </g>
  <g>
    <line style="fill: none; fill-opacity:0; stroke-width: 2; stroke: #000000" x1="686.4" y1="243.016" x2="647.085" y2="191.205"/>
    <polygon style="fill: #000000" points="642.552,185.231 652.58,190.174 647.085,191.205 644.613,196.219 "/>
    <polygon style="fill: none; fill-opacity:0; stroke-width: 2; stroke: #000000" points="642.552,185.231 652.58,190.174 647.085,191.205 644.613,196.219 "/>
  </g>
  <g>
    <rect style="fill: #ffffff" x="98.4" y="59.2833" width="304" height="292.933"/>
    <rect style="fill: none; fill-opacity:0; stroke-width: 2; stroke: #000000" x="98.4" y="59.2833" width="304" height="292.933"/>
    <text font-size="13.5467" style="fill: #000000;text-anchor:middle;font-family:CMU Serif;font-style:normal;font-weight:normal" x="250.4" y="82.9333">
      <tspan x="250.4" y="82.9333"></tspan>
      <tspan x="250.4" y="99.8667"></tspan>
      <tspan x="250.4" y="116.8"></tspan>
      <tspan x="250.4" y="133.733"></tspan>
      <tspan x="250.4" y="150.667"></tspan>
      <tspan x="250.4" y="167.6"></tspan>
      <tspan x="250.4" y="184.533"></tspan>
      <tspan x="250.4" y="201.467"></tspan>
      <tspan x="250.4" y="218.4"></tspan>
      <tspan x="250.4" y="235.333"></tspan>
      <tspan x="250.4" y="252.267"></tspan>
      <tspan x="250.4" y="269.2"></tspan>
      <tspan x="250.4" y="286.133"></tspan>
      <tspan x="250.4" y="303.067"></tspan>
      <tspan x="250.4" y="320"></tspan>
      <tspan x="250.4" y="336.933">Suricata host (Ubuntu Server 14.04.4 x64)</tspan>
    </text>
  </g>
  <line style="fill: none; fill-opacity:0; stroke-width: 2; stroke: #000000" x1="443.4" y1="174.016" x2="558.2" y2="173.716"/>
  <line style="fill: none; fill-opacity:0; stroke-width: 2; stroke: #000000" x1="422.65" y1="248.483" x2="422.2" y2="311.716"/>
  <line style="fill: none; fill-opacity:0; stroke-width: 2; stroke: #000000" x1="578.15" y1="249.483" x2="578.2" y2="312.716"/>
  <g>
    <rect style="fill: #ffffff" x="416" y="310.716" width="168" height="42"/>
    <rect style="fill: none; fill-opacity:0; stroke-width: 2; stroke: #000000" x="416" y="310.716" width="168" height="42"/>
    <text font-size="13.5467" style="fill: #000000;text-anchor:middle;font-family:CMU Serif;font-style:normal;font-weight:normal" x="500" y="335.899">
      <tspan x="500" y="335.899">External network</tspan>
    </text>
  </g>
  <g>
    <rect style="fill: #ffffff" x="182.2" y="279.716" width="144.1" height="39"/>
    <rect style="fill: none; fill-opacity:0; stroke-width: 2; stroke: #000000" x="182.2" y="279.716" width="144.1" height="39"/>
    <text font-size="13.5467" style="fill: #000000;text-anchor:middle;font-family:CMU Serif;font-style:normal;font-weight:normal" x="254.25" y="303.399">
      <tspan x="254.25" y="303.399">Test control process</tspan>
    </text>
  </g>
  <g>
    <rect style="fill: #ffffff" x="717.2" y="77.2493" width="132" height="38.9333"/>
    <rect style="fill: none; fill-opacity:0; stroke-width: 2; stroke: #000000" x="717.2" y="77.2493" width="132" height="38.9333"/>
    <text font-size="13.5467" style="fill: #000000;text-anchor:middle;font-family:CMU Serif;font-style:normal;font-weight:normal" x="783.2" y="100.899">
      <tspan x="783.2" y="100.899">atop</tspan>
    </text>
  </g>
  <g>
    <rect style="fill: #ffffff" x="116.2" y="121.514" width="170.6" height="145.472"/>
    <rect style="fill: none; fill-opacity:0; stroke-width: 2; stroke: #000000" x="116.2" y="121.514" width="170.6" height="145.472"/>
    <text font-size="14.1111" style="fill: #ff0000;text-anchor:middle;font-family:CMU Serif;font-style:oblique;font-weight:normal" x="201.5" y="145.614">
      <tspan x="201.5" y="145.614">QEMU/KVM</tspan>
      <tspan x="201.5" y="163.253"></tspan>
      <tspan x="201.5" y="180.892"></tspan>
      <tspan x="201.5" y="198.531"></tspan>
      <tspan x="201.5" y="216.169"></tspan>
      <tspan x="201.5" y="233.808"></tspan>
      <tspan x="201.5" y="251.447"></tspan>
    </text>
  </g>
  <g>
    <rect style="fill: #ffffff" x="168.4" y="72.5493" width="167" height="38.9333"/>
    <rect style="fill: none; fill-opacity:0; stroke-width: 2; stroke: #000000" x="168.4" y="72.5493" width="167" height="38.9333"/>
    <text font-size="13.5467" style="fill: #000000;text-anchor:middle;font-family:CMU Serif;font-style:normal;font-weight:normal" x="251.9" y="96.1993">
      <tspan x="251.9" y="96.1993">atop, top</tspan>
    </text>
  </g>
  <text font-size="12.8" style="fill: #000000;text-anchor:start;font-family:CMU Serif;font-style:normal;font-weight:normal" x="462.2" y="168.716">
    <tspan x="462.2" y="168.716">1Gbps Link</tspan>
  </text>
  <g>
    <rect style="fill: #ffffff" x="129.3" y="161.281" width="113.5" height="39.6389"/>
    <rect style="fill: none; fill-opacity:0; stroke-width: 2; stroke: #000000" x="129.3" y="161.281" width="113.5" height="39.6389"/>
    <text font-size="14.1111" style="fill: #000000;text-anchor:middle;font-family:CMU Serif;font-style:normal;font-weight:700" x="186.05" y="185.481">
      <tspan x="186.05" y="185.481">Suricata</tspan>
    </text>
  </g>
  <g>
    <rect style="fill: #ffffff" x="360.4" y="154.549" width="83" height="38.9333"/>
    <rect style="fill: none; fill-opacity:0; stroke-width: 2; stroke: #000000" x="360.4" y="154.549" width="83" height="38.9333"/>
    <text font-size="13.5467" style="fill: #000000;text-anchor:middle;font-family:CMU Serif;font-style:normal;font-weight:normal" x="401.9" y="178.199">
      <tspan x="401.9" y="178.199">em2</tspan>
    </text>
  </g>
  <g>
    <rect style="fill: #ffffff" x="360.4" y="209.549" width="83" height="38.9333"/>
    <rect style="fill: none; fill-opacity:0; stroke-width: 2; stroke: #000000" x="360.4" y="209.549" width="83" height="38.9333"/>
    <text font-size="13.5467" style="fill: #000000;text-anchor:middle;font-family:CMU Serif;font-style:normal;font-weight:normal" x="401.9" y="233.199">
      <tspan x="401.9" y="233.199">em1</tspan>
    </text>
  </g>
  <g>
    <rect style="fill: #ffffff" x="262.5" y="154.533" width="79.6" height="38.9333"/>
    <rect style="fill: none; fill-opacity:0; stroke-width: 2; stroke: #000000" x="262.5" y="154.533" width="79.6" height="38.9333"/>
    <text font-size="13.5467" style="fill: #000000;text-anchor:middle;font-family:CMU Serif;font-style:normal;font-weight:normal" x="302.3" y="178.183">
      <tspan x="302.3" y="178.183">macvtap0</tspan>
    </text>
  </g>
  <g>
    <line style="fill: none; fill-opacity:0; stroke-width: 2; stroke: #000000" x1="360.4" y1="174.016" x2="351.836" y2="174.008"/>
    <polygon style="fill: #000000" points="344.336,174.002 354.34,169.011 351.836,174.008 354.332,179.011 "/>
    <polygon style="fill: none; fill-opacity:0; stroke-width: 2; stroke: #000000" points="344.336,174.002 354.34,169.011 351.836,174.008 354.332,179.011 "/>
  </g>
  <g>
    <line style="fill: none; fill-opacity:0; stroke-width: 2; stroke: #000000" x1="262.5" y1="174" x2="251.959" y2="177.799"/>
    <polygon style="fill: #000000" points="244.904,180.342 252.616,172.247 251.959,177.799 256.007,181.655 "/>
    <polygon style="fill: none; fill-opacity:0; stroke-width: 2; stroke: #000000" points="244.904,180.342 252.616,172.247 251.959,177.799 256.007,181.655 "/>
  </g>
  <g>
    <rect style="fill: #ffffff" x="264.35" y="211.5" width="47.65" height="38.9333"/>
    <rect style="fill: none; fill-opacity:0; stroke-width: 2; stroke: #000000" x="264.35" y="211.5" width="47.65" height="38.9333"/>
    <text font-size="13.5467" style="fill: #000000;text-anchor:middle;font-family:CMU Serif;font-style:normal;font-weight:normal" x="288.175" y="235.15">
      <tspan x="288.175" y="235.15">eth1</tspan>
    </text>
  </g>
  <g>
    <rect style="fill: #ffffff" x="124.075" y="212.033" width="125.85" height="38.9333"/>
    <rect style="fill: none; fill-opacity:0; stroke-width: 2; stroke: #000000" x="124.075" y="212.033" width="125.85" height="38.9333"/>
    <text font-size="13.5467" style="fill: #000000;text-anchor:middle;font-family:CMU Serif;font-style:normal;font-weight:normal" x="187" y="235.683">
      <tspan x="187" y="235.683">atop, top, control</tspan>
    </text>
  </g>
  <line style="fill: none; fill-opacity:0; stroke-width: 2; stroke: #000000" x1="249.925" y1="231.5" x2="264.35" y2="230.967"/>
  <polyline style="fill: none; fill-opacity:0; stroke-width: 2; stroke: #000000" points="312,230.967 347.3,230.967 347.3,299.216 326.3,299.216 "/>
</svg>
